<svg width="700" height="450" viewBox="0 0 700 450" fill="none" xmlns="http://www.w3.org/2000/svg">
<rect x="10" y="36" width="650" height="389" rx="20" fill="url(#paint0_radial_0_2)"/>
<path d="M58.8729 383L59.4969 370.364L58.8729 347.12H78.3729L77.8009 352.684H66.1009L65.7889 361.888H76.1889L75.6169 367.4H65.5809L65.5289 369.48L65.8929 377.488H78.4769L77.9049 383H58.8729ZM88.5226 383C86.4773 383 84.796 382.359 83.4786 381.076C82.196 379.759 81.5546 378.008 81.5546 375.824C81.5546 373.605 82.56 371.699 84.5706 370.104C86.5813 368.475 89.0253 367.66 91.9026 367.66H95.4386V366.776C95.4386 365.077 95.092 363.916 94.3986 363.292C93.7053 362.668 92.4053 362.356 90.4986 362.356C89.7013 362.356 88.748 362.529 87.6386 362.876C86.564 363.188 85.3506 363.691 83.9986 364.384L82.4906 360.276C83.9813 359.236 85.784 358.3 87.8986 357.468C90.048 356.636 91.816 356.22 93.2026 356.22C98.6453 356.22 101.367 358.855 101.367 364.124V374.316C101.367 376.257 101.973 378.424 103.187 380.816L97.6746 383.156C96.808 381.492 96.1666 380.001 95.7506 378.684C93.844 381.561 91.4346 383 88.5226 383ZM90.7066 377.696C92.0933 377.696 93.6706 376.985 95.4386 375.564V372.08C93.6013 371.664 92.1106 371.456 90.9666 371.456C88.7826 371.456 87.6906 372.427 87.6906 374.368C87.6906 375.373 87.968 376.188 88.5226 376.812C89.0773 377.401 89.8053 377.696 90.7066 377.696ZM115.55 378.164C117.352 378.164 118.254 377.367 118.254 375.772C118.254 375.217 117.855 374.697 117.058 374.212C116.295 373.727 115.342 373.241 114.198 372.756C113.088 372.271 111.962 371.733 110.818 371.144C109.708 370.52 108.755 369.671 107.958 368.596C107.195 367.521 106.814 366.291 106.814 364.904C106.814 362.581 107.836 360.553 109.882 358.82C111.927 357.087 114.284 356.22 116.954 356.22C118.202 356.22 119.415 356.376 120.594 356.688C121.807 356.965 122.968 357.416 124.078 358.04L120.594 364.384C120.351 364.176 120.039 363.916 119.658 363.604C119.276 363.292 118.548 362.893 117.474 362.408C116.434 361.888 115.498 361.628 114.666 361.628C113.868 361.628 113.244 361.819 112.794 362.2C112.378 362.547 112.17 363.049 112.17 363.708C112.17 364.332 112.759 364.973 113.938 365.632C115.151 366.256 116.468 366.845 117.89 367.4C119.311 367.92 120.611 368.804 121.79 370.052C123.003 371.265 123.61 372.721 123.61 374.42C123.61 376.847 122.604 378.979 120.594 380.816C118.618 382.653 116.33 383.572 113.73 383.572C112.066 383.572 110.506 383.208 109.05 382.48C107.628 381.752 106.606 381.024 105.982 380.296L105.046 379.204L109.154 374.42C109.362 374.697 109.656 375.044 110.038 375.46C110.419 375.876 111.164 376.431 112.274 377.124C113.418 377.817 114.51 378.164 115.55 378.164ZM128.89 393.036L134.246 381.024L130.398 370.52L125.146 357.884L132.062 356.584L135.39 367.66L137.106 372.912H137.782L139.03 369.116L142.774 356.532L149.17 357.312L139.966 381.492L135.598 394.44L128.89 393.036ZM162.074 372.652C165.02 375.599 167.967 377.072 170.914 377.072C172.439 377.072 173.652 376.725 174.554 376.032C175.49 375.304 175.958 374.385 175.958 373.276C175.958 372.132 175.403 371.179 174.294 370.416C173.184 369.619 171.832 368.925 170.238 368.336C168.678 367.747 167.118 367.088 165.558 366.36C163.998 365.597 162.663 364.523 161.554 363.136C160.444 361.749 159.89 360.068 159.89 358.092C159.89 354.972 161.19 352.285 163.79 350.032C166.39 347.744 169.475 346.6 173.046 346.6C174.675 346.6 176.252 346.773 177.778 347.12C179.303 347.467 180.776 347.969 182.198 348.628L178.662 356.22C177.691 355.457 176.356 354.764 174.658 354.14C172.994 353.481 171.52 353.152 170.238 353.152C168.99 353.152 167.967 353.464 167.17 354.088C166.407 354.677 166.026 355.475 166.026 356.48C166.026 357.485 166.58 358.387 167.69 359.184C168.799 359.947 170.134 360.623 171.694 361.212C173.288 361.801 174.866 362.46 176.426 363.188C178.02 363.881 179.372 364.921 180.482 366.308C181.591 367.695 182.146 369.376 182.146 371.352C182.146 374.611 180.846 377.471 178.246 379.932C175.646 382.359 172.612 383.572 169.146 383.572C166.546 383.572 164.24 382.948 162.23 381.7C160.462 380.625 159.214 379.672 158.486 378.84L158.018 378.268L162.074 372.652ZM200.394 356.74C202.613 356.74 204.467 357.711 205.958 359.652C207.483 361.593 208.246 364.211 208.246 367.504C208.246 372.115 207.05 375.859 204.658 378.736C202.301 381.579 199.354 383 195.818 383C195.09 383 194.275 382.948 193.374 382.844L193.634 392.776L186.51 394.076L187.186 370.364H187.238C187.099 365.719 186.718 361.559 186.094 357.884L192.386 356.532C192.594 358.369 192.767 360.189 192.906 361.992C192.975 361.819 193.322 361.351 193.946 360.588C194.605 359.791 195.558 358.959 196.806 358.092C198.054 357.191 199.25 356.74 200.394 356.74ZM198.366 363.5C196.529 363.5 194.743 364.003 193.01 365.008V369.48L193.218 376.916C195.09 377.228 196.511 377.384 197.482 377.384C200.81 377.384 202.474 375.079 202.474 370.468C202.474 365.823 201.105 363.5 198.366 363.5ZM221.921 377.696C222.926 377.696 223.984 377.436 225.093 376.916C226.202 376.396 227.069 375.876 227.693 375.356L228.629 374.576L231.021 377.488C230.674 378.077 230.137 378.753 229.409 379.516C228.681 380.279 227.936 380.937 227.173 381.492C226.445 382.012 225.457 382.497 224.209 382.948C222.996 383.364 221.73 383.572 220.413 383.572C217.605 383.572 215.317 382.515 213.549 380.4C211.781 378.251 210.897 375.495 210.897 372.132C210.897 367.903 212.128 364.193 214.589 361.004C217.05 357.815 219.928 356.22 223.221 356.22C225.752 356.22 227.71 356.931 229.097 358.352C230.518 359.773 231.229 361.767 231.229 364.332C231.229 365.857 230.969 367.591 230.449 369.532L229.409 370.624L216.409 371.82C216.998 375.737 218.836 377.696 221.921 377.696ZM221.921 361.576C220.396 361.576 219.113 362.2 218.073 363.448C217.033 364.661 216.426 366.221 216.253 368.128L225.093 367.036C225.197 366.239 225.249 365.58 225.249 365.06C225.249 362.737 224.14 361.576 221.921 361.576ZM245.128 377.696C246.133 377.696 247.191 377.436 248.3 376.916C249.409 376.396 250.276 375.876 250.9 375.356L251.836 374.576L254.228 377.488C253.881 378.077 253.344 378.753 252.616 379.516C251.888 380.279 251.143 380.937 250.38 381.492C249.652 382.012 248.664 382.497 247.416 382.948C246.203 383.364 244.937 383.572 243.62 383.572C240.812 383.572 238.524 382.515 236.756 380.4C234.988 378.251 234.104 375.495 234.104 372.132C234.104 367.903 235.335 364.193 237.796 361.004C240.257 357.815 243.135 356.22 246.428 356.22C248.959 356.22 250.917 356.931 252.304 358.352C253.725 359.773 254.436 361.767 254.436 364.332C254.436 365.857 254.176 367.591 253.656 369.532L252.616 370.624L239.616 371.82C240.205 375.737 242.043 377.696 245.128 377.696ZM245.128 361.576C243.603 361.576 242.32 362.2 241.28 363.448C240.24 364.661 239.633 366.221 239.46 368.128L248.3 367.036C248.404 366.239 248.456 365.58 248.456 365.06C248.456 362.737 247.347 361.576 245.128 361.576ZM272.703 377.904C269.999 381.301 267.659 383 265.683 383C263.222 383 261.194 381.995 259.599 379.984C258.039 377.973 257.259 375.391 257.259 372.236C257.259 367.903 258.455 364.245 260.847 361.264C263.274 358.283 266.238 356.792 269.739 356.792L272.651 357.208V356.22L272.027 344.052L279.151 342.752L278.475 369.48V374.056C278.475 376.136 278.995 378.528 280.035 381.232L274.419 383.572C273.414 381.492 272.842 379.603 272.703 377.904ZM263.083 369.532C263.083 371.751 263.482 373.484 264.279 374.732C265.111 375.98 266.29 376.604 267.815 376.604C269.375 376.604 270.987 375.98 272.651 374.732V363.5C270.571 363.084 269.028 362.876 268.023 362.876C266.463 362.876 265.25 363.431 264.383 364.54C263.516 365.649 263.083 367.313 263.083 369.532ZM294.816 372.652C297.763 375.599 300.709 377.072 303.656 377.072C305.181 377.072 306.395 376.725 307.296 376.032C308.232 375.304 308.7 374.385 308.7 373.276C308.7 372.132 308.145 371.179 307.036 370.416C305.927 369.619 304.575 368.925 302.98 368.336C301.42 367.747 299.86 367.088 298.3 366.36C296.74 365.597 295.405 364.523 294.296 363.136C293.187 361.749 292.632 360.068 292.632 358.092C292.632 354.972 293.932 352.285 296.532 350.032C299.132 347.744 302.217 346.6 305.788 346.6C307.417 346.6 308.995 346.773 310.52 347.12C312.045 347.467 313.519 347.969 314.94 348.628L311.404 356.22C310.433 355.457 309.099 354.764 307.4 354.14C305.736 353.481 304.263 353.152 302.98 353.152C301.732 353.152 300.709 353.464 299.912 354.088C299.149 354.677 298.768 355.475 298.768 356.48C298.768 357.485 299.323 358.387 300.432 359.184C301.541 359.947 302.876 360.623 304.436 361.212C306.031 361.801 307.608 362.46 309.168 363.188C310.763 363.881 312.115 364.921 313.224 366.308C314.333 367.695 314.888 369.376 314.888 371.352C314.888 374.611 313.588 377.471 310.988 379.932C308.388 382.359 305.355 383.572 301.888 383.572C299.288 383.572 296.983 382.948 294.972 381.7C293.204 380.625 291.956 379.672 291.228 378.84L290.76 378.268L294.816 372.652ZM324.452 383C322.407 383 320.726 382.359 319.408 381.076C318.126 379.759 317.484 378.008 317.484 375.824C317.484 373.605 318.49 371.699 320.5 370.104C322.511 368.475 324.955 367.66 327.832 367.66H331.368V366.776C331.368 365.077 331.022 363.916 330.328 363.292C329.635 362.668 328.335 362.356 326.428 362.356C325.631 362.356 324.678 362.529 323.568 362.876C322.494 363.188 321.28 363.691 319.928 364.384L318.42 360.276C319.911 359.236 321.714 358.3 323.828 357.468C325.978 356.636 327.746 356.22 329.132 356.22C334.575 356.22 337.296 358.855 337.296 364.124V374.316C337.296 376.257 337.903 378.424 339.116 380.816L333.604 383.156C332.738 381.492 332.096 380.001 331.68 378.684C329.774 381.561 327.364 383 324.452 383ZM326.636 377.696C328.023 377.696 329.6 376.985 331.368 375.564V372.08C329.531 371.664 328.04 371.456 326.896 371.456C324.712 371.456 323.62 372.427 323.62 374.368C323.62 375.373 323.898 376.188 324.452 376.812C325.007 377.401 325.735 377.696 326.636 377.696ZM357.511 349.148C356.229 348.836 355.067 348.68 354.027 348.68C352.987 348.68 352.225 348.992 351.739 349.616C351.289 350.24 351.063 351.332 351.063 352.892L351.011 357.832H356.627L356.055 362.096H351.011L350.959 369.48L351.531 381.7L344.511 383L345.135 370.364L344.927 362.096H341.495L342.067 357.832H344.823L344.771 353.88C344.771 350.795 345.725 348.177 347.631 346.028C349.538 343.844 351.861 342.752 354.599 342.752C356.055 342.752 357.563 342.908 359.123 343.22L357.511 349.148ZM368.73 377.696C369.735 377.696 370.792 377.436 371.902 376.916C373.011 376.396 373.878 375.876 374.502 375.356L375.438 374.576L377.83 377.488C377.483 378.077 376.946 378.753 376.218 379.516C375.49 380.279 374.744 380.937 373.982 381.492C373.254 382.012 372.266 382.497 371.018 382.948C369.804 383.364 368.539 383.572 367.222 383.572C364.414 383.572 362.126 382.515 360.358 380.4C358.59 378.251 357.706 375.495 357.706 372.132C357.706 367.903 358.936 364.193 361.398 361.004C363.859 357.815 366.736 356.22 370.03 356.22C372.56 356.22 374.519 356.931 375.906 358.352C377.327 359.773 378.038 361.767 378.038 364.332C378.038 365.857 377.778 367.591 377.258 369.532L376.218 370.624L363.218 371.82C363.807 375.737 365.644 377.696 368.73 377.696ZM368.73 361.576C367.204 361.576 365.922 362.2 364.882 363.448C363.842 364.661 363.235 366.221 363.062 368.128L371.902 367.036C372.006 366.239 372.058 365.58 372.058 365.06C372.058 362.737 370.948 361.576 368.73 361.576ZM406.304 346.6C410.395 346.6 413.757 348.16 416.392 351.28C419.061 354.4 420.396 358.369 420.396 363.188C420.396 369.289 418.819 374.212 415.664 377.956C412.509 381.7 408.367 383.572 403.236 383.572C399.249 383.572 395.904 381.977 393.2 378.788C390.496 375.564 389.144 371.595 389.144 366.88C389.144 360.987 390.756 356.133 393.98 352.32C397.204 348.507 401.312 346.6 406.304 346.6ZM413.324 366.1C413.324 357.329 410.447 352.944 404.692 352.944C402.057 352.944 399.977 353.932 398.452 355.908C396.961 357.849 396.216 360.779 396.216 364.696C396.216 368.579 397.013 371.785 398.608 374.316C400.237 376.812 402.369 378.06 405.004 378.06C407.673 378.06 409.719 377.003 411.14 374.888C412.596 372.739 413.324 369.809 413.324 366.1ZM440.683 346.6C444.774 346.6 448.136 348.16 450.771 351.28C453.44 354.4 454.775 358.369 454.775 363.188C454.775 369.289 453.198 374.212 450.043 377.956C446.888 381.7 442.746 383.572 437.615 383.572C433.628 383.572 430.283 381.977 427.579 378.788C424.875 375.564 423.523 371.595 423.523 366.88C423.523 360.987 425.135 356.133 428.359 352.32C431.583 348.507 435.691 346.6 440.683 346.6ZM447.703 366.1C447.703 357.329 444.826 352.944 439.071 352.944C436.436 352.944 434.356 353.932 432.831 355.908C431.34 357.849 430.595 360.779 430.595 364.696C430.595 368.579 431.392 371.785 432.987 374.316C434.616 376.812 436.748 378.06 439.383 378.06C442.052 378.06 444.098 377.003 445.519 374.888C446.975 372.739 447.703 369.809 447.703 366.1ZM471.786 347.12C475.114 347.12 477.766 348.073 479.742 349.98C481.718 351.852 482.706 354.435 482.706 357.728C482.706 361.021 481.458 363.847 478.962 366.204C476.466 368.527 473.415 369.688 469.81 369.688H466.846L467.47 383H460.502L461.126 370.364L460.502 347.12H471.786ZM469.914 352.372H467.366L467.002 364.644H470.538C472.271 364.644 473.606 364.072 474.542 362.928C475.512 361.784 475.998 360.155 475.998 358.04C475.998 354.261 473.97 352.372 469.914 352.372ZM494.982 383L495.606 370.364L494.982 348.16L502.366 346.86L501.638 369.48L502.002 377.904L512.662 377.072L512.09 383H494.982ZM538.131 383.26L535.583 373.12H523.155L520.399 383L513.743 382.48L518.319 369.844L525.287 347.484L534.595 346.808L541.303 369.064L545.619 382.116L538.131 383.26ZM529.915 353.568H529.239L524.767 367.608H534.023L529.915 353.568ZM578.045 347.016L577.369 369.48L577.941 381.856L571.805 383.156L556.309 358.092V369.48L557.037 383H550.537L551.161 370.364L550.537 347.276L556.777 346.964L572.221 372.392L571.701 347.796L578.045 347.016ZM598.921 383.572C594.379 383.572 590.722 382.047 587.949 378.996C585.175 375.945 583.789 371.907 583.789 366.88C583.789 361.16 585.522 356.341 588.989 352.424C592.455 348.507 596.719 346.548 601.781 346.548C603.791 346.548 605.646 346.739 607.345 347.12C609.078 347.467 610.309 347.831 611.037 348.212L612.077 348.784L609.061 356.012C608.021 355.319 606.617 354.677 604.849 354.088C603.081 353.464 601.521 353.152 600.169 353.152C597.361 353.152 595.107 354.14 593.409 356.116C591.71 358.092 590.861 360.709 590.861 363.968C590.861 368.371 591.658 371.803 593.253 374.264C594.882 376.725 597.135 377.956 600.013 377.956C601.885 377.956 603.653 377.696 605.317 377.176V369.116H598.609L599.129 363.864H611.609L611.141 372.34L611.505 381.336C606.409 382.827 602.214 383.572 598.921 383.572Z" fill="#9CB887"/>
<path d="M65.096 149.625H65.708L68.258 140.853L73.613 120.504L79.784 121.422L73.715 141.669L69.737 155.592L60.302 156.255L56.681 142.638L50.765 121.779L58.007 120.504L62.648 140.19L65.096 149.625ZM90.3223 130.041L89.7103 142.74L90.2713 154.725L83.4373 156L84.0493 143.607L83.4883 131.316L90.3223 130.041ZM83.1313 122.595C83.1313 121.439 83.5733 120.419 84.4573 119.535C85.3413 118.617 86.3613 118.158 87.5173 118.158C88.6733 118.158 89.5573 118.481 90.1693 119.127C90.7813 119.739 91.0873 120.674 91.0873 121.932C91.0873 123.19 90.6453 124.278 89.7613 125.196C88.9113 126.08 87.9083 126.522 86.7523 126.522C85.6303 126.522 84.7463 126.148 84.1003 125.4C83.4543 124.652 83.1313 123.717 83.1313 122.595ZM97.9284 131.316V125.757L104.813 124.431L104.15 131.316H110.321L109.76 135.498H103.946L103.691 146.157C103.691 147.755 103.844 148.826 104.15 149.37C104.456 149.88 105.017 150.135 105.833 150.135C106.649 150.135 107.737 149.948 109.097 149.574L109.403 153.195C107.159 155.065 105.187 156 103.487 156C101.787 156 100.393 155.388 99.3054 154.164C98.2174 152.906 97.6734 151.274 97.6734 149.268L97.9794 143.556L97.9284 135.498H94.4094L94.9704 131.316H97.9284ZM123.248 150.798C124.234 150.798 125.271 150.543 126.359 150.033C127.447 149.523 128.297 149.013 128.909 148.503L129.827 147.738L132.173 150.594C131.833 151.172 131.306 151.835 130.592 152.583C129.878 153.331 129.147 153.977 128.399 154.521C127.685 155.031 126.716 155.507 125.492 155.949C124.302 156.357 123.061 156.561 121.769 156.561C119.015 156.561 116.771 155.524 115.037 153.45C113.303 151.342 112.436 148.639 112.436 145.341C112.436 141.193 113.643 137.555 116.057 134.427C118.471 131.299 121.293 129.735 124.523 129.735C127.005 129.735 128.926 130.432 130.286 131.826C131.68 133.22 132.377 135.175 132.377 137.691C132.377 139.187 132.122 140.887 131.612 142.791L130.592 143.862L117.842 145.035C118.42 148.877 120.222 150.798 123.248 150.798ZM123.248 134.988C121.752 134.988 120.494 135.6 119.474 136.824C118.454 138.014 117.859 139.544 117.689 141.414L126.359 140.343C126.461 139.561 126.512 138.915 126.512 138.405C126.512 136.127 125.424 134.988 123.248 134.988Z" fill="#A4FF90"/>
<path d="M68.56 249.16C77.6267 258.227 86.6933 262.76 95.76 262.76C100.453 262.76 104.187 261.693 106.96 259.56C109.84 257.32 111.28 254.493 111.28 251.08C111.28 247.56 109.573 244.627 106.16 242.28C102.747 239.827 98.5867 237.693 93.68 235.88C88.88 234.067 84.08 232.04 79.28 229.8C74.48 227.453 70.3733 224.147 66.96 219.88C63.5467 215.613 61.84 210.44 61.84 204.36C61.84 194.76 65.84 186.493 73.84 179.56C81.84 172.52 91.3333 169 102.32 169C107.333 169 112.187 169.533 116.88 170.6C121.573 171.667 126.107 173.213 130.48 175.24L119.6 198.6C116.613 196.253 112.507 194.12 107.28 192.2C102.16 190.173 97.6267 189.16 93.68 189.16C89.84 189.16 86.6933 190.12 84.24 192.04C81.8933 193.853 80.72 196.307 80.72 199.4C80.72 202.493 82.4267 205.267 85.84 207.72C89.2533 210.067 93.36 212.147 98.16 213.96C103.067 215.773 107.92 217.8 112.72 220.04C117.627 222.173 121.787 225.373 125.2 229.64C128.613 233.907 130.32 239.08 130.32 245.16C130.32 255.187 126.32 263.987 118.32 271.56C110.32 279.027 100.987 282.76 90.32 282.76C82.32 282.76 75.2267 280.84 69.04 277C63.6 273.693 59.76 270.76 57.52 268.2L56.08 266.44L68.56 249.16ZM190.469 240.52C190.469 233.16 189.829 228.253 188.549 225.8C187.269 223.347 184.282 222.12 179.589 222.12C174.895 222.12 169.562 223.987 163.589 227.72V239.4L165.349 277L143.749 281L145.669 242.12L143.749 161.16L165.669 157.16L163.589 198.6V217.32C165.189 215.187 167.002 213.107 169.029 211.08C171.055 209.053 174.202 206.76 178.469 204.2C182.735 201.64 187.269 200.36 192.069 200.36C196.975 200.36 201.082 202.28 204.389 206.12C207.695 209.853 209.349 214.973 209.349 221.48L208.389 239.4L210.149 277.8L188.549 281.8L190.469 240.52ZM243.811 281C237.518 281 232.345 279.027 228.291 275.08C224.345 271.027 222.371 265.64 222.371 258.92C222.371 252.093 225.465 246.227 231.651 241.32C237.838 236.307 245.358 233.8 254.211 233.8H265.091V231.08C265.091 225.853 264.025 222.28 261.891 220.36C259.758 218.44 255.758 217.48 249.891 217.48C247.438 217.48 244.505 218.013 241.091 219.08C237.785 220.04 234.051 221.587 229.891 223.72L225.251 211.08C229.838 207.88 235.385 205 241.891 202.44C248.505 199.88 253.945 198.6 258.211 198.6C274.958 198.6 283.331 206.707 283.331 222.92V254.28C283.331 260.253 285.198 266.92 288.931 274.28L271.971 281.48C269.305 276.36 267.331 271.773 266.051 267.72C260.185 276.573 252.771 281 243.811 281ZM250.531 264.68C254.798 264.68 259.651 262.493 265.091 258.12V247.4C259.438 246.12 254.851 245.48 251.331 245.48C244.611 245.48 241.251 248.467 241.251 254.44C241.251 257.533 242.105 260.04 243.811 261.96C245.518 263.773 247.758 264.68 250.531 264.68ZM301.051 203.72L320.411 199.56C321.371 207.773 322.011 215.56 322.331 222.92C332.038 207.88 341.158 200.36 349.691 200.36L347.931 225.32C341.745 225.32 336.838 225.907 333.211 227.08C329.691 228.147 326.065 230.333 322.331 233.64V239.4L324.091 277L302.651 281L304.571 242.12C304.145 227.827 302.971 215.027 301.051 203.72ZM402.563 200.2C409.389 200.2 415.096 203.187 419.683 209.16C424.376 215.133 426.723 223.187 426.723 233.32C426.723 247.507 423.043 259.027 415.683 267.88C408.429 276.627 399.363 281 388.483 281C386.243 281 383.736 280.84 380.963 280.52L381.763 311.08L359.843 315.08L361.923 242.12H362.083C361.656 227.827 360.483 215.027 358.563 203.72L377.923 199.56C378.563 205.213 379.096 210.813 379.523 216.36C379.736 215.827 380.803 214.387 382.723 212.04C384.749 209.587 387.683 207.027 391.523 204.36C395.363 201.587 399.043 200.2 402.563 200.2ZM396.323 221C390.669 221 385.176 222.547 379.843 225.64V239.4L380.483 262.28C386.243 263.24 390.616 263.72 393.603 263.72C403.843 263.72 408.963 256.627 408.963 242.44C408.963 228.147 404.749 221 396.323 221Z" fill="white"/>
<path d="M389.15 104.5C390.417 104.233 391.767 104.017 393.2 103.85C394.667 103.683 396.283 103.6 398.05 103.6C400.75 103.6 403 104.083 404.8 105.05C406.6 105.983 407.933 107.233 408.8 108.8C409.7 110.333 410.15 111.983 410.15 113.75C410.15 116.483 409.483 118.783 408.15 120.65C406.817 122.483 404.983 123.883 402.65 124.85C400.317 125.783 397.667 126.25 394.7 126.25C393.9 126.25 393.1 126.217 392.3 126.15C391.533 126.05 390.817 125.917 390.15 125.75L387.85 139H383.1L389.15 104.5ZM397.55 107.55C396.65 107.55 395.85 107.583 395.15 107.65C394.483 107.717 393.867 107.8 393.3 107.9L390.85 121.75C391.517 121.95 392.233 122.1 393 122.2C393.8 122.267 394.583 122.3 395.35 122.3C398.917 122.3 401.5 121.55 403.1 120.05C404.7 118.55 405.5 116.633 405.5 114.3C405.5 112.333 404.8 110.717 403.4 109.45C402.033 108.183 400.083 107.55 397.55 107.55ZM414.879 120.3C414.912 120.133 414.929 119.95 414.929 119.75C414.962 119.517 414.979 119.283 414.979 119.05C414.979 118.117 414.712 117.467 414.179 117.1C413.645 116.7 412.945 116.5 412.079 116.5L413.629 113C415.395 113 416.745 113.433 417.679 114.3C418.645 115.133 419.129 116.383 419.129 118.05V119.05C420.095 116.683 421.329 114.983 422.829 113.95C424.362 112.917 426.095 112.4 428.029 112.4C428.795 112.4 429.445 112.467 429.979 112.6C430.545 112.7 431.012 112.833 431.379 113L429.379 117.4C428.979 117.233 428.562 117.117 428.129 117.05C427.695 116.983 427.195 116.95 426.629 116.95C425.429 116.95 424.229 117.383 423.029 118.25C421.862 119.083 420.795 120.483 419.829 122.45C418.895 124.417 418.129 127.117 417.529 130.55L416.079 139H411.579L414.879 120.3ZM442.654 139.6C440.187 139.6 438.054 139.1 436.254 138.1C434.454 137.1 433.054 135.717 432.054 133.95C431.087 132.15 430.604 130.117 430.604 127.85C430.604 124.95 431.187 122.333 432.354 120C433.554 117.667 435.221 115.817 437.354 114.45C439.487 113.083 442.004 112.4 444.904 112.4C447.371 112.4 449.504 112.9 451.304 113.9C453.104 114.9 454.487 116.283 455.454 118.05C456.454 119.817 456.954 121.85 456.954 124.15C456.954 127.017 456.371 129.633 455.204 132C454.037 134.333 452.371 136.183 450.204 137.55C448.071 138.917 445.554 139.6 442.654 139.6ZM442.804 135.6C444.804 135.6 446.504 135.117 447.904 134.15C449.337 133.15 450.437 131.817 451.204 130.15C451.971 128.483 452.354 126.617 452.354 124.55C452.354 123.017 452.054 121.65 451.454 120.45C450.854 119.217 449.987 118.233 448.854 117.5C447.721 116.767 446.354 116.4 444.754 116.4C442.787 116.4 441.087 116.9 439.654 117.9C438.221 118.867 437.121 120.183 436.354 121.85C435.587 123.517 435.204 125.383 435.204 127.45C435.204 128.95 435.504 130.317 436.104 131.55C436.704 132.783 437.571 133.767 438.704 134.5C439.837 135.233 441.204 135.6 442.804 135.6ZM477.133 112.4C479.1 112.4 480.833 112.6 482.333 113C483.833 113.4 485.067 113.8 486.033 114.2L481.683 139.3C481.283 141.6 480.667 143.483 479.833 144.95C479.033 146.417 478.083 147.55 476.983 148.35C475.917 149.183 474.783 149.767 473.583 150.1C472.383 150.433 471.2 150.6 470.033 150.6C467.767 150.6 465.833 150.133 464.233 149.2C462.667 148.267 461.383 147.183 460.383 145.95L463.883 143.35C465.517 145.583 467.667 146.7 470.333 146.7C472 146.7 473.467 146.083 474.733 144.85C476 143.617 476.9 141.517 477.433 138.55L478.283 133.65C477.35 135.15 476.183 136.417 474.783 137.45C473.417 138.483 471.867 139 470.133 139C468.533 139 467 138.6 465.533 137.8C464.1 137 462.917 135.833 461.983 134.3C461.083 132.767 460.633 130.883 460.633 128.65C460.633 125.417 461.35 122.583 462.783 120.15C464.217 117.717 466.183 115.817 468.683 114.45C471.183 113.083 474 112.4 477.133 112.4ZM465.233 128.15C465.233 129.65 465.517 130.917 466.083 131.95C466.683 132.95 467.45 133.717 468.383 134.25C469.317 134.75 470.3 135 471.333 135C472.6 135 473.8 134.55 474.933 133.65C476.067 132.75 477.05 131.483 477.883 129.85C478.75 128.217 479.383 126.3 479.783 124.1L481.083 116.85C480.45 116.65 479.783 116.5 479.083 116.4C478.383 116.267 477.567 116.2 476.633 116.2C474.4 116.2 472.417 116.733 470.683 117.8C468.983 118.833 467.65 120.25 466.683 122.05C465.717 123.85 465.233 125.883 465.233 128.15ZM493.541 120.3C493.574 120.133 493.591 119.95 493.591 119.75C493.624 119.517 493.641 119.283 493.641 119.05C493.641 118.117 493.374 117.467 492.841 117.1C492.307 116.7 491.607 116.5 490.741 116.5L492.291 113C494.057 113 495.407 113.433 496.341 114.3C497.307 115.133 497.791 116.383 497.791 118.05V119.05C498.757 116.683 499.991 114.983 501.491 113.95C503.024 112.917 504.757 112.4 506.691 112.4C507.457 112.4 508.107 112.467 508.641 112.6C509.207 112.7 509.674 112.833 510.041 113L508.041 117.4C507.641 117.233 507.224 117.117 506.791 117.05C506.357 116.983 505.857 116.95 505.291 116.95C504.091 116.95 502.891 117.383 501.691 118.25C500.524 119.083 499.457 120.483 498.491 122.45C497.557 124.417 496.791 127.117 496.191 130.55L494.741 139H490.241L493.541 120.3ZM509.266 128.75C509.266 125.517 509.966 122.683 511.366 120.25C512.799 117.783 514.766 115.867 517.266 114.5C519.766 113.1 522.616 112.4 525.816 112.4C527.783 112.4 529.499 112.6 530.966 113C532.466 113.4 533.699 113.8 534.666 114.2L531.516 131.95C531.483 132.117 531.449 132.317 531.416 132.55C531.416 132.75 531.416 132.967 531.416 133.2C531.416 134.133 531.683 134.8 532.216 135.2C532.749 135.567 533.449 135.75 534.316 135.75L532.766 139.25C530.966 139.25 529.583 138.817 528.616 137.95C527.683 137.05 527.216 135.667 527.216 133.8C526.283 135.4 525.099 136.767 523.666 137.9C522.266 139.033 520.616 139.6 518.716 139.6C517.083 139.6 515.549 139.167 514.116 138.3C512.683 137.4 511.516 136.15 510.616 134.55C509.716 132.917 509.266 130.983 509.266 128.75ZM529.716 116.85C529.083 116.65 528.416 116.5 527.716 116.4C527.049 116.267 526.233 116.2 525.266 116.2C522.966 116.2 520.966 116.717 519.266 117.75C517.566 118.783 516.233 120.217 515.266 122.05C514.333 123.85 513.866 125.9 513.866 128.2C513.866 129.8 514.149 131.15 514.716 132.25C515.316 133.35 516.083 134.183 517.016 134.75C517.949 135.317 518.916 135.6 519.916 135.6C521.283 135.6 522.533 135.133 523.666 134.2C524.799 133.267 525.766 131.967 526.566 130.3C527.399 128.633 527.999 126.733 528.366 124.6L529.716 116.85ZM571.506 116.35C570.406 116.35 569.206 116.767 567.906 117.6C566.606 118.433 565.423 119.733 564.356 121.5C563.289 123.233 562.506 125.483 562.006 128.25L560.106 139H555.606L558.456 123.45C558.623 122.65 558.723 122.067 558.756 121.7C558.789 121.3 558.806 120.933 558.806 120.6C558.806 119.3 558.423 118.267 557.656 117.5C556.923 116.733 555.956 116.35 554.756 116.35C553.589 116.35 552.356 116.783 551.056 117.65C549.756 118.517 548.573 119.867 547.506 121.7C546.439 123.5 545.656 125.817 545.156 128.65L543.356 139H538.856L543.406 113H547.756L546.656 119C547.656 117 549.006 115.4 550.706 114.2C552.439 113 554.223 112.4 556.056 112.4C558.123 112.4 559.789 113.033 561.056 114.3C562.323 115.533 563.039 117.1 563.206 119C564.339 116.933 565.723 115.317 567.356 114.15C569.023 112.983 570.823 112.4 572.756 112.4C574.989 112.4 576.756 113.1 578.056 114.5C579.389 115.867 580.056 117.55 580.056 119.55C580.056 120.383 579.956 121.433 579.756 122.7L576.856 139H572.356L575.206 123.45C575.373 122.65 575.473 122.067 575.506 121.7C575.539 121.3 575.556 120.933 575.556 120.6C575.556 119.3 575.173 118.267 574.406 117.5C573.673 116.733 572.706 116.35 571.506 116.35ZM617.16 116.35C616.06 116.35 614.86 116.767 613.56 117.6C612.26 118.433 611.077 119.733 610.01 121.5C608.943 123.233 608.16 125.483 607.66 128.25L605.76 139H601.26L604.11 123.45C604.277 122.65 604.377 122.067 604.41 121.7C604.443 121.3 604.46 120.933 604.46 120.6C604.46 119.3 604.077 118.267 603.31 117.5C602.577 116.733 601.61 116.35 600.41 116.35C599.243 116.35 598.01 116.783 596.71 117.65C595.41 118.517 594.227 119.867 593.16 121.7C592.093 123.5 591.31 125.817 590.81 128.65L589.01 139H584.51L589.06 113H593.41L592.31 119C593.31 117 594.66 115.4 596.36 114.2C598.093 113 599.877 112.4 601.71 112.4C603.777 112.4 605.443 113.033 606.71 114.3C607.977 115.533 608.693 117.1 608.86 119C609.993 116.933 611.377 115.317 613.01 114.15C614.677 112.983 616.477 112.4 618.41 112.4C620.643 112.4 622.41 113.1 623.71 114.5C625.043 115.867 625.71 117.55 625.71 119.55C625.71 120.383 625.61 121.433 625.41 122.7L622.51 139H618.01L620.86 123.45C621.027 122.65 621.127 122.067 621.16 121.7C621.193 121.3 621.21 120.933 621.21 120.6C621.21 119.3 620.827 118.267 620.06 117.5C619.327 116.733 618.36 116.35 617.16 116.35ZM638.014 108.55C637.081 108.55 636.364 108.283 635.864 107.75C635.398 107.183 635.164 106.533 635.164 105.8C635.164 104.733 635.498 103.883 636.164 103.25C636.831 102.583 637.664 102.25 638.664 102.25C639.598 102.25 640.298 102.533 640.764 103.1C641.264 103.633 641.514 104.267 641.514 105C641.514 106.033 641.181 106.883 640.514 107.55C639.848 108.217 639.014 108.55 638.014 108.55ZM634.664 139H630.164L634.714 113H639.214L634.664 139ZM659.307 116.35C658.141 116.35 656.874 116.783 655.507 117.65C654.141 118.517 652.874 119.867 651.707 121.7C650.574 123.5 649.757 125.817 649.257 128.65L647.457 139H642.957L647.507 113H651.857L650.757 119C651.791 117 653.174 115.4 654.907 114.2C656.674 113 658.524 112.4 660.457 112.4C662.724 112.4 664.541 113.1 665.907 114.5C667.274 115.867 667.957 117.55 667.957 119.55C667.957 120.383 667.857 121.433 667.657 122.7L664.807 139H660.307L663.057 123.45C663.224 122.65 663.324 122.067 663.357 121.7C663.391 121.3 663.407 120.933 663.407 120.6C663.407 119.3 663.024 118.267 662.257 117.5C661.524 116.733 660.541 116.35 659.307 116.35ZM688.901 112.4C690.867 112.4 692.601 112.6 694.101 113C695.601 113.4 696.834 113.8 697.801 114.2L693.451 139.3C693.051 141.6 692.434 143.483 691.601 144.95C690.801 146.417 689.851 147.55 688.751 148.35C687.684 149.183 686.551 149.767 685.351 150.1C684.151 150.433 682.967 150.6 681.801 150.6C679.534 150.6 677.601 150.133 676.001 149.2C674.434 148.267 673.151 147.183 672.151 145.95L675.651 143.35C677.284 145.583 679.434 146.7 682.101 146.7C683.767 146.7 685.234 146.083 686.501 144.85C687.767 143.617 688.667 141.517 689.201 138.55L690.051 133.65C689.117 135.15 687.951 136.417 686.551 137.45C685.184 138.483 683.634 139 681.901 139C680.301 139 678.767 138.6 677.301 137.8C675.867 137 674.684 135.833 673.751 134.3C672.851 132.767 672.401 130.883 672.401 128.65C672.401 125.417 673.117 122.583 674.551 120.15C675.984 117.717 677.951 115.817 680.451 114.45C682.951 113.083 685.767 112.4 688.901 112.4ZM677.001 128.15C677.001 129.65 677.284 130.917 677.851 131.95C678.451 132.95 679.217 133.717 680.151 134.25C681.084 134.75 682.067 135 683.101 135C684.367 135 685.567 134.55 686.701 133.65C687.834 132.75 688.817 131.483 689.651 129.85C690.517 128.217 691.151 126.3 691.551 124.1L692.851 116.85C692.217 116.65 691.551 116.5 690.851 116.4C690.151 116.267 689.334 116.2 688.401 116.2C686.167 116.2 684.184 116.733 682.451 117.8C680.751 118.833 679.417 120.25 678.451 122.05C677.484 123.85 677.001 125.883 677.001 128.15ZM389.25 163H394L388.6 193.75H404.65L403.9 198H383.1L389.25 163ZM407.606 187.75C407.606 184.517 408.306 181.683 409.706 179.25C411.139 176.783 413.106 174.867 415.606 173.5C418.106 172.1 420.956 171.4 424.156 171.4C426.123 171.4 427.839 171.6 429.306 172C430.806 172.4 432.039 172.8 433.006 173.2L429.856 190.95C429.823 191.117 429.789 191.317 429.756 191.55C429.756 191.75 429.756 191.967 429.756 192.2C429.756 193.133 430.023 193.8 430.556 194.2C431.089 194.567 431.789 194.75 432.656 194.75L431.106 198.25C429.306 198.25 427.923 197.817 426.956 196.95C426.023 196.05 425.556 194.667 425.556 192.8C424.623 194.4 423.439 195.767 422.006 196.9C420.606 198.033 418.956 198.6 417.056 198.6C415.423 198.6 413.889 198.167 412.456 197.3C411.023 196.4 409.856 195.15 408.956 193.55C408.056 191.917 407.606 189.983 407.606 187.75ZM428.056 175.85C427.423 175.65 426.756 175.5 426.056 175.4C425.389 175.267 424.573 175.2 423.606 175.2C421.306 175.2 419.306 175.717 417.606 176.75C415.906 177.783 414.573 179.217 413.606 181.05C412.673 182.85 412.206 184.9 412.206 187.2C412.206 188.8 412.489 190.15 413.056 191.25C413.656 192.35 414.423 193.183 415.356 193.75C416.289 194.317 417.256 194.6 418.256 194.6C419.623 194.6 420.873 194.133 422.006 193.2C423.139 192.267 424.106 190.967 424.906 189.3C425.739 187.633 426.339 185.733 426.706 183.6L428.056 175.85ZM453.546 175.35C452.379 175.35 451.112 175.783 449.746 176.65C448.379 177.517 447.112 178.867 445.946 180.7C444.812 182.5 443.996 184.817 443.496 187.65L441.696 198H437.196L441.746 172H446.096L444.996 178C446.029 176 447.412 174.4 449.146 173.2C450.912 172 452.762 171.4 454.696 171.4C456.962 171.4 458.779 172.1 460.146 173.5C461.512 174.867 462.196 176.55 462.196 178.55C462.196 179.383 462.096 180.433 461.896 181.7L459.046 198H454.546L457.296 182.45C457.462 181.65 457.562 181.067 457.596 180.7C457.629 180.3 457.646 179.933 457.646 179.6C457.646 178.3 457.262 177.267 456.496 176.5C455.762 175.733 454.779 175.35 453.546 175.35ZM483.139 171.4C485.106 171.4 486.839 171.6 488.339 172C489.839 172.4 491.072 172.8 492.039 173.2L487.689 198.3C487.289 200.6 486.672 202.483 485.839 203.95C485.039 205.417 484.089 206.55 482.989 207.35C481.922 208.183 480.789 208.767 479.589 209.1C478.389 209.433 477.206 209.6 476.039 209.6C473.772 209.6 471.839 209.133 470.239 208.2C468.672 207.267 467.389 206.183 466.389 204.95L469.889 202.35C471.522 204.583 473.672 205.7 476.339 205.7C478.006 205.7 479.472 205.083 480.739 203.85C482.006 202.617 482.906 200.517 483.439 197.55L484.289 192.65C483.356 194.15 482.189 195.417 480.789 196.45C479.422 197.483 477.872 198 476.139 198C474.539 198 473.006 197.6 471.539 196.8C470.106 196 468.922 194.833 467.989 193.3C467.089 191.767 466.639 189.883 466.639 187.65C466.639 184.417 467.356 181.583 468.789 179.15C470.222 176.717 472.189 174.817 474.689 173.45C477.189 172.083 480.006 171.4 483.139 171.4ZM471.239 187.15C471.239 188.65 471.522 189.917 472.089 190.95C472.689 191.95 473.456 192.717 474.389 193.25C475.322 193.75 476.306 194 477.339 194C478.606 194 479.806 193.55 480.939 192.65C482.072 191.75 483.056 190.483 483.889 188.85C484.756 187.217 485.389 185.3 485.789 183.1L487.089 175.85C486.456 175.65 485.789 175.5 485.089 175.4C484.389 175.267 483.572 175.2 482.639 175.2C480.406 175.2 478.422 175.733 476.689 176.8C474.989 177.833 473.656 179.25 472.689 181.05C471.722 182.85 471.239 184.883 471.239 187.15ZM503.346 198.6C502.013 198.6 500.78 198.3 499.646 197.7C498.546 197.1 497.663 196.267 496.996 195.2C496.33 194.1 495.996 192.8 495.996 191.3C495.996 190.867 496.013 190.433 496.046 190C496.08 189.533 496.13 189.05 496.196 188.55L499.046 172H503.546L500.646 188.45C500.613 188.783 500.58 189.083 500.546 189.35C500.513 189.583 500.496 189.85 500.496 190.15C500.496 191.65 500.93 192.767 501.796 193.5C502.663 194.233 503.68 194.6 504.846 194.6C506.113 194.6 507.346 194.217 508.546 193.45C509.78 192.65 510.863 191.517 511.796 190.05C512.73 188.583 513.38 186.817 513.746 184.75L515.996 172H520.496L517.196 190.95C517.163 191.117 517.13 191.317 517.096 191.55C517.096 191.75 517.096 191.967 517.096 192.2C517.096 193.133 517.363 193.8 517.896 194.2C518.43 194.567 519.13 194.75 519.996 194.75L518.446 198.25C516.646 198.25 515.263 197.817 514.296 196.95C513.363 196.05 512.896 194.667 512.896 192.8V192.35C510.463 196.517 507.28 198.6 503.346 198.6ZM524.207 187.75C524.207 184.517 524.907 181.683 526.307 179.25C527.741 176.783 529.707 174.867 532.207 173.5C534.707 172.1 537.557 171.4 540.757 171.4C542.724 171.4 544.441 171.6 545.907 172C547.407 172.4 548.641 172.8 549.607 173.2L546.457 190.95C546.424 191.117 546.391 191.317 546.357 191.55C546.357 191.75 546.357 191.967 546.357 192.2C546.357 193.133 546.624 193.8 547.157 194.2C547.691 194.567 548.391 194.75 549.257 194.75L547.707 198.25C545.907 198.25 544.524 197.817 543.557 196.95C542.624 196.05 542.157 194.667 542.157 192.8C541.224 194.4 540.041 195.767 538.607 196.9C537.207 198.033 535.557 198.6 533.657 198.6C532.024 198.6 530.491 198.167 529.057 197.3C527.624 196.4 526.457 195.15 525.557 193.55C524.657 191.917 524.207 189.983 524.207 187.75ZM544.657 175.85C544.024 175.65 543.357 175.5 542.657 175.4C541.991 175.267 541.174 175.2 540.207 175.2C537.907 175.2 535.907 175.717 534.207 176.75C532.507 177.783 531.174 179.217 530.207 181.05C529.274 182.85 528.807 184.9 528.807 187.2C528.807 188.8 529.091 190.15 529.657 191.25C530.257 192.35 531.024 193.183 531.957 193.75C532.891 194.317 533.857 194.6 534.857 194.6C536.224 194.6 537.474 194.133 538.607 193.2C539.741 192.267 540.707 190.967 541.507 189.3C542.341 187.633 542.941 185.733 543.307 183.6L544.657 175.85ZM570.053 171.4C572.02 171.4 573.753 171.6 575.253 172C576.753 172.4 577.986 172.8 578.953 173.2L574.603 198.3C574.203 200.6 573.586 202.483 572.753 203.95C571.953 205.417 571.003 206.55 569.903 207.35C568.836 208.183 567.703 208.767 566.503 209.1C565.303 209.433 564.12 209.6 562.953 209.6C560.686 209.6 558.753 209.133 557.153 208.2C555.586 207.267 554.303 206.183 553.303 204.95L556.803 202.35C558.436 204.583 560.586 205.7 563.253 205.7C564.92 205.7 566.386 205.083 567.653 203.85C568.92 202.617 569.82 200.517 570.353 197.55L571.203 192.65C570.27 194.15 569.103 195.417 567.703 196.45C566.336 197.483 564.786 198 563.053 198C561.453 198 559.92 197.6 558.453 196.8C557.02 196 555.836 194.833 554.903 193.3C554.003 191.767 553.553 189.883 553.553 187.65C553.553 184.417 554.27 181.583 555.703 179.15C557.136 176.717 559.103 174.817 561.603 173.45C564.103 172.083 566.92 171.4 570.053 171.4ZM558.153 187.15C558.153 188.65 558.436 189.917 559.003 190.95C559.603 191.95 560.37 192.717 561.303 193.25C562.236 193.75 563.22 194 564.253 194C565.52 194 566.72 193.55 567.853 192.65C568.986 191.75 569.97 190.483 570.803 188.85C571.67 187.217 572.303 185.3 572.703 183.1L574.003 175.85C573.37 175.65 572.703 175.5 572.003 175.4C571.303 175.267 570.486 175.2 569.553 175.2C567.32 175.2 565.336 175.733 563.603 176.8C561.903 177.833 560.57 179.25 559.603 181.05C558.636 182.85 558.153 184.883 558.153 187.15ZM593.611 198.6C591.411 198.6 589.461 198.133 587.761 197.2C586.094 196.233 584.777 194.867 583.811 193.1C582.877 191.3 582.411 189.183 582.411 186.75C582.411 183.983 582.977 181.433 584.111 179.1C585.277 176.767 586.911 174.9 589.011 173.5C591.144 172.1 593.627 171.4 596.461 171.4C598.394 171.4 600.027 171.767 601.361 172.5C602.727 173.233 603.777 174.183 604.511 175.35C605.244 176.517 605.611 177.767 605.611 179.1C605.611 180.933 605.177 182.45 604.311 183.65C603.444 184.85 602.327 185.783 600.961 186.45C599.594 187.083 598.111 187.533 596.511 187.8C594.944 188.067 593.444 188.2 592.011 188.2C591.111 188.2 590.211 188.167 589.311 188.1C588.444 188 587.677 187.9 587.011 187.8C587.277 190 588.061 191.683 589.361 192.85C590.661 194.017 592.327 194.6 594.361 194.6C596.027 194.6 597.511 194.383 598.811 193.95C600.111 193.517 601.211 193.083 602.111 192.65L602.511 196.65C601.511 197.117 600.244 197.567 598.711 198C597.177 198.4 595.477 198.6 593.611 198.6ZM596.111 175.2C594.544 175.2 593.127 175.6 591.861 176.4C590.594 177.167 589.544 178.233 588.711 179.6C587.911 180.933 587.377 182.467 587.111 184.2C587.877 184.333 588.644 184.45 589.411 184.55C590.211 184.617 591.077 184.65 592.011 184.65C594.811 184.65 597.027 184.267 598.661 183.5C600.294 182.7 601.111 181.35 601.111 179.45C601.111 178.283 600.644 177.283 599.711 176.45C598.811 175.617 597.611 175.2 596.111 175.2Z" fill="white"/>
<defs>
<radialGradient id="paint0_radial_0_2" cx="0" cy="0" r="1" gradientUnits="userSpaceOnUse" gradientTransform="translate(440 443.478) rotate(163.735) scale(406.259 235.767)">
<stop stop-color="#192061"/>
<stop offset="1" stop-color="#0A0C1B"/>
</radialGradient>
</defs>
</svg>
