<?xml version="1.0" encoding="utf-8"?>
<svg width="789px" height="499px" viewBox="0 0 789 499" version="1.1" xmlns:xlink="http://www.w3.org/1999/xlink" xmlns="http://www.w3.org/2000/svg">
  <defs>
    <path d="M789 0L789 0L789 499L0 499L0 0L789 0Z" id="path_1" />
    <path d="M0 0L595 0L595 95L0 95L0 0Z" id="path_2" />
    <path d="M0 0L338 0L338 156L0 156L0 0Z" id="path_3" />
    <path d="M0 0L140 0L140 104L0 104L0 0Z" id="path_4" />
    <path d="M0 0L401 0L401 216L0 216L0 0Z" id="path_5" />
    <clipPath id="clip_1">
      <use xlink:href="#path_1" clip-rule="evenodd" fill-rule="evenodd" />
    </clipPath>
    <clipPath id="clip_2">
      <use xlink:href="#path_2" clip-rule="evenodd" fill-rule="evenodd" transform="translate(0, -13.317993)" />
    </clipPath>
    <clipPath id="clip_3">
      <use xlink:href="#path_3" clip-rule="evenodd" fill-rule="evenodd" transform="translate(0, -18.900002)" />
    </clipPath>
    <clipPath id="clip_4">
      <use xlink:href="#path_4" clip-rule="evenodd" fill-rule="evenodd" transform="translate(0, -17.817997)" />
    </clipPath>
    <clipPath id="clip_5">
      <use xlink:href="#path_5" clip-rule="evenodd" fill-rule="evenodd" transform="translate(0, -1.6559982)" />
    </clipPath>
  </defs>
  <g id="Frame">
    <path d="M789 0L789 0L789 499L0 499L0 0L789 0Z" id="Frame" fill="none" stroke="none" />
    <path d="M683 46C694.6 46 704 55.4004 704 67L704 431C704 442.6 694.6 452 683 452L52 452C40.4004 452 31 442.6 31 431L31 67C31 55.4004 40.4004 46 52 46L683 46Z" id="Body" fill="#0B0D1F" stroke="none" clip-path="url(#clip_1)" />
    <g id="Content" transform="translate(70 93)" clip-path="url(#clip_1)">
      <g id="Easy-Speed-Safe-OOP-LANG" clip-path="url(#clip_2)" transform="translate(0 259.318)">
        <g transform="translate(6.4400024, 16.578001)" id="Easy-Speed-Safe-OOP-LANG" fill="#9CB887">
          <path d="M4.32 51.786L4.968 38.664L4.32 14.526L24.57 14.526L23.976 20.304L11.826 20.304L11.502 29.862L22.302 29.862L21.708 35.586L11.286 35.586L11.232 37.746L11.61 46.062L24.678 46.062L24.084 51.786L4.32 51.786ZM35.1 51.786Q31.914 51.786 29.889 49.761Q27.864 47.736 27.864 44.307Q27.864 40.878 30.996 38.367Q34.128 35.856 38.61 35.856L42.282 35.856L42.282 34.938Q42.282 32.292 41.202 31.32Q40.122 30.348 37.152 30.348Q35.91 30.348 34.209 30.861Q32.508 31.374 30.402 32.454L28.836 28.188Q31.158 26.568 34.479 25.272Q37.8 23.976 39.96 23.976Q48.438 23.976 48.438 32.184L48.438 42.768Q48.438 45.792 50.328 49.518L44.604 51.948Q43.254 49.356 42.606 47.304Q39.636 51.786 35.1 51.786ZM37.368 46.278Q39.528 46.278 42.282 44.064L42.282 40.446Q39.42 39.798 37.638 39.798Q34.236 39.798 34.236 42.822Q34.236 44.388 35.1 45.333Q35.964 46.278 37.368 46.278ZM63.18 46.764Q65.988 46.764 65.988 44.28Q65.988 43.416 64.773 42.66Q63.558 41.904 61.803 41.148Q60.048 40.392 58.293 39.447Q56.538 38.502 55.323 36.828Q54.108 35.154 54.108 32.994Q54.108 29.376 57.294 26.676Q60.48 23.976 64.638 23.976Q66.582 23.976 68.445 24.435Q70.308 24.894 72.036 25.866L68.418 32.454Q68.04 32.13 67.446 31.644Q66.852 31.158 65.205 30.375Q63.558 29.592 62.289 29.592Q61.02 29.592 60.345 30.159Q59.67 30.726 59.67 31.725Q59.67 32.724 61.533 33.723Q63.396 34.722 65.61 35.559Q67.824 36.396 69.687 38.313Q71.55 40.23 71.55 42.876Q71.55 46.656 68.445 49.518Q65.34 52.38 61.29 52.38Q58.698 52.38 56.457 51.246Q54.216 50.112 53.244 48.978L52.272 47.844L56.538 42.876Q56.862 43.308 57.456 43.956Q58.05 44.604 59.805 45.684Q61.56 46.764 63.18 46.764ZM77.058 62.208L82.62 49.734L78.624 38.826L73.17 25.704L80.352 24.354L83.808 35.856L85.59 41.31L86.292 41.31L87.588 37.368L91.476 24.3L98.118 25.11L88.56 50.22L84.024 63.666L77.058 62.208ZM111.51 41.04Q116.1 45.63 120.69 45.63Q123.066 45.63 124.497 44.523Q125.928 43.416 125.928 41.661Q125.928 39.906 124.2 38.691Q122.472 37.476 120.015 36.558Q117.558 35.64 115.128 34.479Q112.698 33.318 110.97 31.158Q109.242 28.998 109.242 25.92Q109.242 21.06 113.292 17.523Q117.342 13.986 122.904 13.986Q125.442 13.986 127.818 14.526Q130.194 15.066 132.408 16.092L128.736 23.976Q127.224 22.788 124.605 21.789Q121.986 20.79 120.015 20.79Q118.044 20.79 116.829 21.735Q115.614 22.68 115.614 24.246Q115.614 25.812 117.342 27.027Q119.07 28.242 121.527 29.16Q123.984 30.078 126.441 31.185Q128.898 32.292 130.626 34.452Q132.354 36.612 132.354 39.69Q132.354 44.766 128.304 48.573Q124.254 52.38 118.854 52.38Q114.804 52.38 111.672 50.436Q108.918 48.762 107.784 47.466L107.298 46.872L111.51 41.04ZM151.308 24.516Q154.764 24.516 157.113 27.54Q159.462 30.564 159.462 35.694Q159.462 42.876 155.763 47.331C153.297 50.301 150.228 51.786 146.556 51.786C145.8 51.786 144.954 51.732 144.018 51.624L144.288 61.938L136.89 63.288L137.592 38.664L137.646 38.664Q137.43 31.428 136.458 25.704L142.992 24.3Q143.316 27.162 143.532 29.97Q143.64 29.7 144.639 28.485Q145.638 27.27 147.582 25.893Q149.526 24.516 151.308 24.516ZM149.202 31.536Q146.34 31.536 143.64 33.102L143.64 37.746L143.856 45.468Q146.772 45.954 148.284 45.954Q153.468 45.954 153.468 38.745Q153.468 31.536 149.202 31.536ZM173.664 46.278Q175.23 46.278 176.958 45.468Q178.686 44.658 179.658 43.848L180.63 43.038L183.114 46.062Q182.574 46.98 181.44 48.168Q180.306 49.356 179.145 50.193Q177.984 51.03 176.067 51.705Q174.15 52.38 172.098 52.38Q167.724 52.38 164.97 49.059Q162.216 45.738 162.216 40.5Q162.216 33.912 166.05 28.944Q169.884 23.976 175.014 23.976Q178.956 23.976 181.143 26.19Q183.33 28.404 183.33 32.4Q183.33 34.776 182.52 37.8L181.44 38.934L167.94 40.176Q168.858 46.278 173.664 46.278ZM173.664 29.538Q171.288 29.538 169.668 31.455Q168.048 33.372 167.778 36.342L176.958 35.208Q177.12 33.966 177.12 33.156Q177.12 29.538 173.664 29.538ZM197.748 46.278Q199.314 46.278 201.042 45.468Q202.77 44.658 203.742 43.848L204.714 43.038L207.198 46.062Q206.658 46.98 205.524 48.168Q204.39 49.356 203.229 50.193Q202.068 51.03 200.151 51.705Q198.234 52.38 196.182 52.38Q191.808 52.38 189.054 49.059Q186.3 45.738 186.3 40.5Q186.3 33.912 190.134 28.944Q193.968 23.976 199.098 23.976Q203.04 23.976 205.227 26.19Q207.414 28.404 207.414 32.4Q207.414 34.776 206.604 37.8L205.524 38.934L192.024 40.176Q192.942 46.278 197.748 46.278ZM197.748 29.538Q195.372 29.538 193.752 31.455Q192.132 33.372 191.862 36.342L201.042 35.208Q201.204 33.966 201.204 33.156Q201.204 29.538 197.748 29.538ZM226.368 46.494Q222.156 51.786 219.078 51.786C216.522 51.786 214.425 50.742 212.787 48.654Q210.33 45.522 210.33 40.608Q210.33 33.858 214.083 29.214Q217.836 24.57 223.29 24.57L226.314 25.002L226.314 23.976L225.666 11.34L233.064 9.99L232.362 37.746L232.362 42.498Q232.362 45.738 233.982 49.95L228.15 52.38Q226.584 49.14 226.368 46.494ZM216.378 37.8Q216.378 41.256 217.647 43.2Q218.916 45.144 221.319 45.144Q223.722 45.144 226.314 43.2L226.314 31.536Q223.074 30.888 221.508 30.888Q219.078 30.888 217.728 32.616Q216.378 34.344 216.378 37.8ZM249.318 41.04Q253.908 45.63 258.498 45.63Q260.874 45.63 262.305 44.523Q263.736 43.416 263.736 41.661Q263.736 39.906 262.008 38.691Q260.28 37.476 257.823 36.558Q255.366 35.64 252.936 34.479Q250.506 33.318 248.778 31.158Q247.05 28.998 247.05 25.92Q247.05 21.06 251.1 17.523Q255.15 13.986 260.712 13.986Q263.25 13.986 265.626 14.526Q268.002 15.066 270.216 16.092L266.544 23.976Q265.032 22.788 262.413 21.789Q259.794 20.79 257.823 20.79Q255.852 20.79 254.637 21.735Q253.422 22.68 253.422 24.246Q253.422 25.812 255.15 27.027Q256.878 28.242 259.335 29.16Q261.792 30.078 264.249 31.185Q266.706 32.292 268.434 34.452Q270.162 36.612 270.162 39.69Q270.162 44.766 266.112 48.573Q262.062 52.38 256.662 52.38Q252.612 52.38 249.48 50.436Q246.726 48.762 245.592 47.466L245.106 46.872L249.318 41.04ZM280.098 51.786Q276.912 51.786 274.887 49.761Q272.862 47.736 272.862 44.307Q272.862 40.878 275.994 38.367Q279.126 35.856 283.608 35.856L287.28 35.856L287.28 34.938Q287.28 32.292 286.2 31.32Q285.12 30.348 282.15 30.348Q280.908 30.348 279.207 30.861Q277.506 31.374 275.4 32.454L273.834 28.188Q276.156 26.568 279.477 25.272Q282.798 23.976 284.958 23.976Q293.436 23.976 293.436 32.184L293.436 42.768Q293.436 45.792 295.326 49.518L289.602 51.948Q288.252 49.356 287.604 47.304Q284.634 51.786 280.098 51.786ZM282.366 46.278Q284.526 46.278 287.28 44.064L287.28 40.446Q284.418 39.798 282.636 39.798Q279.234 39.798 279.234 42.822Q279.234 44.388 280.098 45.333Q280.962 46.278 282.366 46.278ZM314.442 16.632Q312.444 16.146 310.824 16.146Q309.204 16.146 308.475 17.118Q307.746 18.09 307.746 20.52L307.692 25.65L313.524 25.65L312.93 30.078L307.692 30.078L307.638 37.746L308.232 50.436L300.942 51.786L301.59 38.664L301.374 30.078L297.81 30.078L298.404 25.65L301.266 25.65L301.212 21.546Q301.212 16.74 304.182 13.365Q307.152 9.99001 311.418 9.99Q313.686 9.99001 316.116 10.476L314.442 16.632ZM326.106 46.278Q327.672 46.278 329.4 45.468Q331.128 44.658 332.1 43.848L333.072 43.038L335.556 46.062Q335.016 46.98 333.882 48.168Q332.748 49.356 331.587 50.193Q330.426 51.03 328.509 51.705Q326.592 52.38 324.54 52.38Q320.166 52.38 317.412 49.059Q314.658 45.738 314.658 40.5Q314.658 33.912 318.492 28.944Q322.326 23.976 327.456 23.976Q331.398 23.976 333.585 26.19Q335.772 28.404 335.772 32.4Q335.772 34.776 334.962 37.8L333.882 38.934L320.382 40.176Q321.3 46.278 326.106 46.278ZM326.106 29.538Q323.73 29.538 322.11 31.455Q320.49 33.372 320.22 36.342L329.4 35.208Q329.562 33.966 329.562 33.156Q329.562 29.538 326.106 29.538ZM365.094 13.986Q371.466 13.986 375.597 18.846Q379.728 23.706 379.728 31.212Q379.728 40.716 374.814 46.548Q369.9 52.38 361.908 52.38Q355.698 52.38 351.486 47.385Q347.274 42.39 347.274 35.046Q347.274 25.866 352.296 19.926Q357.318 13.986 365.094 13.986ZM372.384 34.236Q372.384 20.574 363.42 20.574Q359.316 20.574 356.967 23.625Q354.618 26.676 354.618 32.751Q354.618 38.826 357.129 42.741Q359.64 46.656 363.771 46.656Q367.902 46.656 370.143 43.335Q372.384 40.014 372.384 34.236ZM400.788 13.986Q407.16 13.986 411.291 18.846Q415.422 23.706 415.422 31.212Q415.422 40.716 410.508 46.548Q405.594 52.38 397.602 52.38Q391.392 52.38 387.18 47.385Q382.968 42.39 382.968 35.046Q382.968 25.866 387.99 19.926Q393.012 13.986 400.788 13.986ZM408.078 34.236Q408.078 20.574 399.114 20.574Q395.01 20.574 392.661 23.625Q390.312 26.676 390.312 32.751Q390.312 38.826 392.823 42.741Q395.334 46.656 399.465 46.656Q403.596 46.656 405.837 43.335Q408.078 40.014 408.078 34.236ZM433.08 14.526Q438.264 14.526 441.342 17.469Q444.42 20.412 444.42 25.542Q444.42 30.672 440.532 34.317Q436.644 37.962 431.028 37.962L427.95 37.962L428.598 51.786L421.362 51.786L422.01 38.664L421.362 14.526L433.08 14.526ZM431.136 19.98L428.49 19.98L428.112 32.724L431.784 32.724Q434.484 32.724 435.969 30.942Q437.454 29.16 437.454 25.866Q437.454 19.98 431.136 19.98ZM457.164 51.786L457.812 38.664L457.164 15.606L464.832 14.256L464.076 37.746L464.454 46.494L475.524 45.63L474.93 51.786L457.164 51.786ZM501.984 52.056L499.338 41.526L486.432 41.526L483.57 51.786L476.658 51.246L481.41 38.124L488.646 14.904L498.312 14.202L505.278 37.314L509.76 50.868L501.984 52.056ZM493.452 21.222L492.75 21.222L488.106 35.802L497.718 35.802L493.452 21.222ZM543.456 14.418L542.754 37.746L543.348 50.598L536.976 51.948L520.884 25.92L520.884 37.746L521.64 51.786L514.89 51.786L515.538 38.664L514.89 14.688L521.37 14.364L537.408 40.77L536.868 15.228L543.456 14.418ZM565.11 52.38Q558.036 52.38 553.716 47.628Q549.396 42.876 549.396 35.046Q549.396 26.136 554.796 20.034Q560.196 13.932 568.08 13.932Q571.212 13.932 573.885 14.499Q576.558 15.066 577.692 15.66L578.772 16.254L575.64 23.76Q574.02 22.68 571.266 21.735Q568.512 20.79 566.406 20.79Q562.032 20.79 559.386 23.868Q556.74 26.946 556.74 32.022Q556.74 38.88 559.251 42.714Q561.762 46.548 566.244 46.548Q569.16 46.548 571.752 45.738L571.752 37.368L564.786 37.368L565.326 31.914L578.286 31.914L577.8 40.716L578.178 50.058Q570.24 52.38 565.11 52.38Z" />
        </g>
      </g>
      <g id="Programming-Language" clip-path="url(#clip_3)" transform="translate(350 18.900002)">
        <g transform="translate(0, 13.1)" id="Programming-" fill="#FFFFFF">
          <path d="M8.15 11.5Q10.05 11.1 12.225 10.85Q14.4 10.6 17.05 10.6Q21.1 10.6 23.8 12.025Q26.5 13.45 27.825 15.775Q29.15 18.1 29.15 20.75Q29.15 24.85 27.15 27.625Q25.15 30.4 21.65 31.825Q18.15 33.25 13.7 33.25Q12.5 33.25 11.325 33.125Q10.15 33 9.15 32.75L6.85 46L2.1 46L8.15 11.5ZM16.55 14.55Q15.2 14.55 14.175 14.65Q13.15 14.75 12.3 14.9L9.85 28.75Q10.85 29.05 12.025 29.175Q13.2 29.3 14.35 29.3Q19.7 29.3 22.1 27.05Q24.5 24.8 24.5 21.3Q24.5 18.35 22.425 16.45Q20.35 14.55 16.55 14.55ZM33.9 27.3Q33.95 27.05 33.975 26.725Q34 26.4 34 26.05Q34 24.65 33.2 24.075Q32.4 23.5 31.1 23.5L32.65 20Q35.3 20 36.725 21.275Q38.15 22.55 38.15 25.05L38.15 26.05Q39.6 22.5 41.875 20.95Q44.15 19.4 47.05 19.4Q48.2 19.4 49.025 19.575Q49.85 19.75 50.4 20L48.4 24.4Q47.8 24.15 47.15 24.05Q46.5 23.95 45.65 23.95Q43.85 23.95 42.075 25.225Q40.3 26.5 38.875 29.45Q37.45 32.4 36.55 37.55L35.1 46L30.6 46L33.9 27.3ZM61.65 46.6Q57.95 46.6 55.25 45.1Q52.55 43.6 51.075 40.925Q49.6 38.25 49.6 34.85Q49.6 30.5 51.375 27Q53.15 23.5 56.35 21.45Q59.55 19.4 63.9 19.4Q67.6 19.4 70.3 20.9Q73 22.4 74.475 25.05Q75.95 27.7 75.95 31.15Q75.95 35.45 74.2 38.975Q72.45 42.5 69.225 44.55Q66 46.6 61.65 46.6ZM61.8 42.6Q64.8 42.6 66.925 41.125Q69.05 39.65 70.2 37.15Q71.35 34.65 71.35 31.55Q71.35 29.25 70.45 27.425Q69.55 25.6 67.85 24.5Q66.15 23.4 63.75 23.4Q60.8 23.4 58.65 24.875Q56.5 26.35 55.35 28.85Q54.2 31.35 54.2 34.45Q54.2 36.7 55.1 38.55Q56 40.4 57.7 41.5Q59.4 42.6 61.8 42.6ZM96.15 19.4Q99.1 19.4 101.35 20Q103.6 20.6 105.05 21.2L100.7 46.3Q100.1 49.75 98.875 51.95Q97.65 54.15 96.025 55.375Q94.4 56.6 92.6 57.1Q90.8 57.6 89.05 57.6Q85.65 57.6 83.275 56.2Q80.9 54.8 79.4 52.95L82.9 50.35Q85.35 53.7 89.35 53.7Q91.85 53.7 93.75 51.85Q95.65 50 96.45 45.55L97.3 40.65Q95.9 42.9 93.825 44.45C92.4417 45.4833 90.8833 46 89.15 46C87.55 46 86.025 45.6 84.575 44.8Q82.4 43.6 81.025 41.3Q79.65 39 79.65 35.65Q79.65 30.8 81.8 27.15Q83.95 23.5 87.7 21.45Q91.45 19.4 96.15 19.4ZM84.25 35.15Q84.25 37.4 85.125 38.925Q86 40.45 87.4 41.225Q88.8 42 90.35 42Q92.25 42 93.95 40.65Q95.65 39.3 96.925 36.85Q98.2 34.4 98.8 31.1L100.1 23.85Q99.15 23.55 98.1 23.375Q97.05 23.2 95.65 23.2Q92.3 23.2 89.725 24.775Q87.15 26.35 85.7 29.05Q84.25 31.75 84.25 35.15ZM112.55 27.3Q112.6 27.05 112.625 26.725Q112.65 26.4 112.65 26.05Q112.65 24.65 111.85 24.075Q111.05 23.5 109.75 23.5L111.3 20Q113.95 20 115.375 21.275Q116.8 22.55 116.8 25.05L116.8 26.05Q118.25 22.5 120.525 20.95Q122.8 19.4 125.7 19.4Q126.85 19.4 127.675 19.575Q128.5 19.75 129.05 20L127.05 24.4Q126.45 24.15 125.8 24.05Q125.15 23.95 124.3 23.95Q122.5 23.95 120.725 25.225Q118.95 26.5 117.525 29.45Q116.1 32.4 115.2 37.55L113.75 46L109.25 46L112.55 27.3ZM128.25 35.75Q128.25 30.9 130.375 27.225Q132.5 23.55 136.25 21.475Q140 19.4 144.8 19.4Q147.75 19.4 149.975 20Q152.2 20.6 153.65 21.2L150.5 38.95Q150.45 39.2 150.425 39.525Q150.4 39.85 150.4 40.2Q150.4 41.6 151.2 42.175Q152 42.75 153.3 42.75L151.75 46.25Q149.05 46.25 147.625 44.925Q146.2 43.6 146.2 40.8Q144.8 43.2 142.675 44.9Q140.55 46.6 137.7 46.6Q135.25 46.6 133.1 45.275Q130.95 43.95 129.6 41.525Q128.25 39.1 128.25 35.75ZM148.7 23.85Q147.75 23.55 146.725 23.375Q145.7 23.2 144.25 23.2Q140.8 23.2 138.25 24.75Q135.7 26.3 134.275 29.025Q132.85 31.75 132.85 35.2Q132.85 37.6 133.725 39.25Q134.6 40.9 136 41.75Q137.4 42.6 138.9 42.6Q140.95 42.6 142.65 41.2Q144.35 39.8 145.575 37.3Q146.8 34.8 147.35 31.6L148.7 23.85ZM190.5 23.35Q188.85 23.35 186.9 24.6Q184.95 25.85 183.35 28.475Q181.75 31.1 181 35.25L179.1 46L174.6 46L177.45 30.45Q177.7 29.25 177.75 28.675Q177.8 28.1 177.8 27.6Q177.8 25.65 176.675 24.5Q175.55 23.35 173.75 23.35Q172 23.35 170.05 24.65Q168.1 25.95 166.5 28.675Q164.9 31.4 164.15 35.65L162.35 46L157.85 46L162.4 20L166.75 20L165.65 26Q167.15 23 169.725 21.2Q172.3 19.4 175.05 19.4Q178.15 19.4 180.05 21.275Q181.95 23.15 182.2 26Q183.9 22.9 186.375 21.15Q188.85 19.4 191.75 19.4Q195.1 19.4 197.075 21.475Q199.05 23.55 199.05 26.55Q199.05 27.8 198.75 29.7L195.85 46L191.35 46L194.2 30.45Q194.45 29.25 194.5 28.675Q194.55 28.1 194.55 27.6Q194.55 25.65 193.425 24.5Q192.3 23.35 190.5 23.35ZM236.15 23.35Q234.5 23.35 232.55 24.6Q230.6 25.85 229 28.475Q227.4 31.1 226.65 35.25L224.75 46L220.25 46L223.1 30.45Q223.35 29.25 223.4 28.675Q223.45 28.1 223.45 27.6Q223.45 25.65 222.325 24.5Q221.2 23.35 219.4 23.35Q217.65 23.35 215.7 24.65Q213.75 25.95 212.15 28.675Q210.55 31.4 209.8 35.65L208 46L203.5 46L208.05 20L212.4 20L211.3 26Q212.8 23 215.375 21.2Q217.95 19.4 220.7 19.4Q223.8 19.4 225.7 21.275Q227.6 23.15 227.85 26Q229.55 22.9 232.025 21.15Q234.5 19.4 237.4 19.4Q240.75 19.4 242.725 21.475Q244.7 23.55 244.7 26.55Q244.7 27.8 244.4 29.7L241.5 46L237 46L239.85 30.45Q240.1 29.25 240.15 28.675Q240.2 28.1 240.2 27.6Q240.2 25.65 239.075 24.5Q237.95 23.35 236.15 23.35ZM257 15.55Q255.6 15.55 254.875 14.725Q254.15 13.9 254.15 12.8Q254.15 11.2 255.15 10.225Q256.15 9.25 257.65 9.25Q259.05 9.25 259.775 10.075Q260.5 10.9 260.5 12Q260.5 13.55 259.5 14.55Q258.5 15.55 257 15.55ZM253.65 46L249.15 46L253.7 20L258.2 20L253.65 46ZM278.3 23.35Q276.55 23.35 274.5 24.65Q272.45 25.95 270.725 28.675Q269 31.4 268.25 35.65L266.45 46L261.95 46L266.5 20L270.85 20L269.75 26Q271.3 23 273.925 21.2Q276.55 19.4 279.45 19.4Q282.85 19.4 284.9 21.475Q286.95 23.55 286.95 26.55Q286.95 27.8 286.65 29.7L283.8 46L279.3 46L282.05 30.45Q282.3 29.25 282.35 28.675Q282.4 28.1 282.4 27.6Q282.4 25.65 281.275 24.5Q280.15 23.35 278.3 23.35ZM307.9 19.4Q310.85 19.4 313.1 20Q315.35 20.6 316.8 21.2L312.45 46.3Q311.85 49.75 310.625 51.95Q309.4 54.15 307.775 55.375Q306.15 56.6 304.35 57.1Q302.55 57.6 300.8 57.6Q297.4 57.6 295.025 56.2Q292.65 54.8 291.15 52.95L294.65 50.35Q297.1 53.7 301.1 53.7Q303.6 53.7 305.5 51.85Q307.4 50 308.2 45.55L309.05 40.65Q307.65 42.9 305.575 44.45C304.192 45.4833 302.633 46 300.9 46C299.3 46 297.775 45.6 296.325 44.8Q294.15 43.6 292.775 41.3Q291.4 39 291.4 35.65Q291.4 30.8 293.55 27.15Q295.7 23.5 299.45 21.45Q303.2 19.4 307.9 19.4ZM296 35.15Q296 37.4 296.875 38.925Q297.75 40.45 299.15 41.225Q300.55 42 302.1 42Q304 42 305.7 40.65Q307.4 39.3 308.675 36.85Q309.95 34.4 310.55 31.1L311.85 23.85Q310.9 23.55 309.85 23.375Q308.8 23.2 307.4 23.2Q304.05 23.2 301.475 24.775Q298.9 26.35 297.45 29.05Q296 31.75 296 35.15Z" />
        </g>
        <g transform="translate(0, 72.2)" id="Language" fill="#FFFFFF">
          <path d="M8.25 11L13 11L7.6 41.75L23.65 41.75L22.9 46L2.1 46L8.25 11ZM26.6 35.75Q26.6 30.9 28.725 27.225Q30.85 23.55 34.6 21.475Q38.35 19.4 43.15 19.4Q46.1 19.4 48.325 20Q50.55 20.6 52 21.2L48.85 38.95Q48.8 39.2 48.775 39.525Q48.75 39.85 48.75 40.2Q48.75 41.6 49.55 42.175Q50.35 42.75 51.65 42.75L50.1 46.25Q47.4 46.25 45.975 44.925Q44.55 43.6 44.55 40.8Q43.15 43.2 41.025 44.9Q38.9 46.6 36.05 46.6Q33.6 46.6 31.45 45.275Q29.3 43.95 27.95 41.525Q26.6 39.1 26.6 35.75ZM47.05 23.85Q46.1 23.55 45.075 23.375Q44.05 23.2 42.6 23.2Q39.15 23.2 36.6 24.75Q34.05 26.3 32.625 29.025Q31.2 31.75 31.2 35.2Q31.2 37.6 32.075 39.25Q32.95 40.9 34.35 41.75Q35.75 42.6 37.25 42.6Q39.3 42.6 41 41.2Q42.7 39.8 43.925 37.3Q45.15 34.8 45.7 31.6L47.05 23.85ZM72.55 23.35Q70.8 23.35 68.75 24.65Q66.7 25.95 64.975 28.675Q63.25 31.4 62.5 35.65L60.7 46L56.2 46L60.75 20L65.1 20L64 26Q65.55 23 68.175 21.2Q70.8 19.4 73.7 19.4Q77.1 19.4 79.15 21.475Q81.2 23.55 81.2 26.55Q81.2 27.8 80.9 29.7L78.05 46L73.55 46L76.3 30.45Q76.55 29.25 76.6 28.675Q76.65 28.1 76.65 27.6Q76.65 25.65 75.525 24.5Q74.4 23.35 72.55 23.35ZM102.15 19.4Q105.1 19.4 107.35 20Q109.6 20.6 111.05 21.2L106.7 46.3Q106.1 49.75 104.875 51.95Q103.65 54.15 102.025 55.375Q100.4 56.6 98.6 57.1Q96.8 57.6 95.05 57.6Q91.65 57.6 89.275 56.2Q86.9 54.8 85.4 52.95L88.9 50.35Q91.35 53.7 95.35 53.7Q97.85 53.7 99.75 51.85Q101.65 50 102.45 45.55L103.3 40.65Q101.9 42.9 99.825 44.45C98.4417 45.4833 96.8833 46 95.15 46C93.55 46 92.025 45.6 90.575 44.8Q88.4 43.6 87.025 41.3Q85.65 39 85.65 35.65Q85.65 30.8 87.8 27.15Q89.95 23.5 93.7 21.45Q97.45 19.4 102.15 19.4ZM90.25 35.15Q90.25 37.4 91.125 38.925Q92 40.45 93.4 41.225Q94.8 42 96.35 42Q98.25 42 99.95 40.65Q101.65 39.3 102.925 36.85Q104.2 34.4 104.8 31.1L106.1 23.85Q105.15 23.55 104.1 23.375Q103.05 23.2 101.65 23.2Q98.3 23.2 95.725 24.775Q93.15 26.35 91.7 29.05Q90.25 31.75 90.25 35.15ZM122.35 46.6Q120.35 46.6 118.675 45.7Q117 44.8 116 43.175Q115 41.55 115 39.3Q115 38.65 115.05 37.975Q115.1 37.3 115.2 36.55L118.05 20L122.55 20L119.65 36.45Q119.6 36.95 119.55 37.325Q119.5 37.7 119.5 38.15Q119.5 40.4 120.8 41.5Q122.1 42.6 123.85 42.6Q125.75 42.6 127.575 41.425Q129.4 40.25 130.8 38.05Q132.2 35.85 132.75 32.75L135 20L139.5 20L136.2 38.95Q136.15 39.2 136.125 39.525Q136.1 39.85 136.1 40.2Q136.1 41.6 136.9 42.175Q137.7 42.75 139 42.75L137.45 46.25Q134.75 46.25 133.325 44.925Q131.9 43.6 131.9 40.8L131.9 40.35Q128.25 46.6 122.35 46.6ZM143.2 35.75Q143.2 30.9 145.325 27.225Q147.45 23.55 151.2 21.475Q154.95 19.4 159.75 19.4Q162.7 19.4 164.925 20Q167.15 20.6 168.6 21.2L165.45 38.95Q165.4 39.2 165.375 39.525Q165.35 39.85 165.35 40.2Q165.35 41.6 166.15 42.175Q166.95 42.75 168.25 42.75L166.7 46.25Q164 46.25 162.575 44.925Q161.15 43.6 161.15 40.8Q159.75 43.2 157.625 44.9Q155.5 46.6 152.65 46.6Q150.2 46.6 148.05 45.275Q145.9 43.95 144.55 41.525Q143.2 39.1 143.2 35.75ZM163.65 23.85Q162.7 23.55 161.675 23.375Q160.65 23.2 159.2 23.2Q155.75 23.2 153.2 24.75Q150.65 26.3 149.225 29.025Q147.8 31.75 147.8 35.2Q147.8 37.6 148.675 39.25Q149.55 40.9 150.95 41.75Q152.35 42.6 153.85 42.6Q155.9 42.6 157.6 41.2Q159.3 39.8 160.525 37.3Q161.75 34.8 162.3 31.6L163.65 23.85ZM189.05 19.4Q192 19.4 194.25 20Q196.5 20.6 197.95 21.2L193.6 46.3Q193 49.75 191.775 51.95Q190.55 54.15 188.925 55.375Q187.3 56.6 185.5 57.1Q183.7 57.6 181.95 57.6Q178.55 57.6 176.175 56.2Q173.8 54.8 172.3 52.95L175.8 50.35Q178.25 53.7 182.25 53.7Q184.75 53.7 186.65 51.85Q188.55 50 189.35 45.55L190.2 40.65Q188.8 42.9 186.725 44.45C185.342 45.4833 183.783 46 182.05 46C180.45 46 178.925 45.6 177.475 44.8Q175.3 43.6 173.925 41.3Q172.55 39 172.55 35.65Q172.55 30.8 174.7 27.15Q176.85 23.5 180.6 21.45Q184.35 19.4 189.05 19.4ZM177.15 35.15Q177.15 37.4 178.025 38.925Q178.9 40.45 180.3 41.225Q181.7 42 183.25 42Q185.15 42 186.85 40.65Q188.55 39.3 189.825 36.85Q191.1 34.4 191.7 31.1L193 23.85Q192.05 23.55 191 23.375Q189.95 23.2 188.55 23.2Q185.2 23.2 182.625 24.775Q180.05 26.35 178.6 29.05Q177.15 31.75 177.15 35.15ZM212.6 46.6Q209.3 46.6 206.775 45.175Q204.25 43.75 202.825 41.075Q201.4 38.4 201.4 34.75Q201.4 30.6 203.125 27.1Q204.85 23.6 208.025 21.5Q211.2 19.4 215.45 19.4Q218.35 19.4 220.375 20.5Q222.4 21.6 223.5 23.35Q224.6 25.1 224.6 27.1Q224.6 29.85 223.3 31.65Q222 33.45 219.95 34.425Q217.9 35.4 215.525 35.8Q213.15 36.2 211 36.2Q209.65 36.2 208.325 36.075Q207 35.95 206 35.8Q206.4 39.1 208.35 40.85Q210.3 42.6 213.35 42.6Q215.85 42.6 217.8 41.95Q219.75 41.3 221.1 40.65L221.5 44.65Q220 45.35 217.7 45.975Q215.4 46.6 212.6 46.6ZM215.1 23.2Q212.75 23.2 210.85 24.375Q208.95 25.55 207.725 27.575Q206.5 29.6 206.1 32.2Q207.25 32.4 208.425 32.525Q209.6 32.65 211 32.65Q215.2 32.65 217.65 31.475Q220.1 30.3 220.1 27.45Q220.1 25.7 218.725 24.45Q217.35 23.2 215.1 23.2Z" />
        </g>
      </g>
      <g id="ViteSharp" transform="translate(5 8)">
        <g id="Vite" clip-path="url(#clip_4)" transform="translate(0 17.817997)">
          <g transform="translate(0, 16.578001)" id="Vite" fill="#A4FF90">
            <path d="M15.984 45.036L16.632 45.036L19.332 35.748L25.002 14.202L31.536 15.174L25.11 36.612L20.898 51.354L10.908 52.056L7.074 37.638L0.81 15.552L8.478 14.202L13.392 35.046L15.984 45.036ZM42.714 24.3L42.066 37.746L42.66 50.436L35.424 51.786L36.072 38.664L35.478 25.65L42.714 24.3ZM35.1 16.389Q35.1 14.58 36.504 13.149Q37.908 11.718 39.744 11.718Q41.58 11.718 42.552 12.717Q43.524 13.716 43.524 15.714Q43.524 17.712 42.147 19.143Q40.77 20.574 38.961 20.574Q37.152 20.574 36.126 19.386Q35.1 18.198 35.1 16.389ZM50.76 25.65L50.76 19.764L58.05 18.36L57.348 25.65L63.882 25.65L63.288 30.078L57.132 30.078L56.862 41.364Q56.862 43.902 57.348 44.739Q57.834 45.576 59.13 45.576Q60.426 45.576 62.586 44.982L62.91 48.816Q59.346 51.786 56.646 51.786Q53.946 51.786 52.218 49.815Q50.49 47.844 50.49 44.658L50.814 38.61L50.76 30.078L47.034 30.078L47.628 25.65L50.76 25.65ZM77.544 46.278Q79.11 46.278 80.838 45.468Q82.566 44.658 83.538 43.848L84.51 43.038L86.994 46.062Q86.454 46.98 85.32 48.168Q84.186 49.356 83.025 50.193Q81.864 51.03 79.947 51.705Q78.03 52.38 75.978 52.38Q71.604 52.38 68.85 49.059Q66.096 45.738 66.096 40.5Q66.096 33.912 69.93 28.944Q73.764 23.976 78.894 23.976Q82.836 23.976 85.023 26.19Q87.21 28.404 87.21 32.4Q87.21 34.776 86.4 37.8L85.32 38.934L71.82 40.176Q72.738 46.278 77.544 46.278ZM77.544 29.538Q75.168 29.538 73.548 31.455Q71.928 33.372 71.658 36.342L80.838 35.208Q81 33.966 81 33.156Q81 29.538 77.544 29.538Z" />
          </g>
        </g>
        <g id="Sharp" clip-path="url(#clip_5)" transform="translate(0 41.656)">
          <g transform="translate(0, 51.576)" id="Sharp" fill="#FFFFFF">
            <path d="M15.288 127.68Q29.568 141.96 43.848 141.96Q51.24 141.96 55.692 138.516Q60.144 135.072 60.144 129.612Q60.144 124.152 54.768 120.372Q49.392 116.592 41.748 113.736Q34.104 110.88 26.544 107.268Q18.984 103.656 13.608 96.936Q8.232 90.216 8.232 80.64Q8.232 65.52 20.832 54.516Q33.432 43.512 50.736 43.512Q58.632 43.512 66.024 45.192Q73.416 46.872 80.304 50.064L68.88 74.592Q64.176 70.896 56.028 67.788Q47.88 64.68 41.748 64.68Q35.616 64.68 31.836 67.62Q28.056 70.56 28.056 75.432Q28.056 80.304 33.432 84.084Q38.808 87.864 46.452 90.72Q54.096 93.576 61.74 97.02Q69.384 100.464 74.76 107.184Q80.136 113.904 80.136 123.48Q80.136 139.272 67.536 151.116Q54.936 162.96 38.136 162.96Q25.536 162.96 15.792 156.912Q7.224 151.704 3.696 147.672L2.184 145.824L15.288 127.68ZM143.304 118.608Q143.304 107.016 141.288 103.152Q139.272 99.288 131.88 99.288Q124.488 99.288 115.08 105.168L115.08 117.432L116.928 156.912L94.248 161.112L96.264 120.288L94.248 35.28L117.264 31.08L115.08 74.592L115.08 94.248Q117.6 90.888 120.792 87.696Q123.984 84.504 130.704 80.472Q137.424 76.44 145.068 76.44Q152.712 76.44 157.92 82.404Q163.128 88.368 163.128 98.616L162.12 117.432L163.968 157.752L141.288 161.952L143.304 118.608ZM199.248 161.112Q189.336 161.112 183.036 154.812Q176.736 148.512 176.736 137.844Q176.736 127.176 186.48 119.364Q196.224 111.552 210.168 111.552L221.592 111.552L221.592 108.696Q221.592 100.464 218.232 97.44Q214.872 94.416 205.632 94.416Q201.768 94.416 196.476 96.012Q191.184 97.608 184.632 100.968L179.76 87.696Q186.984 82.656 197.316 78.624Q207.648 74.592 214.368 74.592Q240.744 74.592 240.744 100.128L240.744 133.056Q240.744 142.464 246.624 154.056L228.816 161.616Q224.616 153.552 222.6 147.168Q213.36 161.112 199.248 161.112ZM206.304 143.976Q213.024 143.976 221.592 137.088L221.592 125.832Q212.688 123.816 207.144 123.816Q196.56 123.816 196.56 133.224Q196.56 138.096 199.248 141.036Q201.936 143.976 206.304 143.976ZM259.392 79.968L279.72 75.6Q281.232 88.536 281.736 100.128Q297.024 76.44 310.464 76.44L308.616 102.648Q298.872 102.648 293.244 104.412Q287.616 106.176 281.736 111.384L281.736 117.432L283.584 156.912L261.072 161.112L263.088 120.288Q262.416 97.776 259.392 79.968ZM365.904 76.272Q376.656 76.272 383.964 85.68Q391.272 95.088 391.272 111.048Q391.272 133.392 379.764 147.252C372.092 156.492 362.544 161.112 351.12 161.112C348.768 161.112 346.136 160.944 343.224 160.608L344.064 192.696L321.048 196.896L323.232 120.288L323.4 120.288Q322.728 97.776 319.704 79.968L340.032 75.6Q341.04 84.504 341.712 93.24Q342.048 92.4 345.156 88.62Q348.264 84.84 354.312 80.556Q360.36 76.272 365.904 76.272ZM359.352 98.112Q350.448 98.112 342.048 102.984L342.048 117.432L342.72 141.456Q351.792 142.968 356.496 142.968Q372.624 142.968 372.624 120.54Q372.624 98.112 359.352 98.112Z" />
          </g>
        </g>
      </g>
    </g>
  </g>
</svg>